%
M48
M72
T01C0.00984
T02C0.01575
T03C0.02362
T04C0.04000
T05C0.04016
T06C0.04331
T07C0.04724
T08C0.09843
T09C0.12008
T10C0.13780
T11C0.31496
%
T01
X395390Y400114
X406413Y431217
X400409Y437122
X397457Y437122
X394602Y433579
X368618Y465469
X368618Y469012
X368618Y472555
X365075Y472555
X365075Y469012
X365075Y465469
X346177Y464681
X342634Y464681
X342634Y468224
X346177Y468224
X352083Y450114
X351689Y491846
X357594Y491846
X363500Y491846
X369406Y491846
X355626Y541059
X344996Y561138
X342634Y563500
X340272Y561138
X337909Y563500
X335547Y561138
X333185Y563500
X326098Y565862
X323736Y563500
X326098Y561138
X323736Y558776
X326098Y556413
X347358Y563500
X347358Y589484
X341354Y594209
X338402Y594209
X335547Y590665
X319799Y617831
X319799Y621374
X316256Y621374
X316256Y617831
X320193Y629642
X320193Y633185
X320193Y636728
X310744Y647358
X310744Y650902
X310744Y654445
X321374Y657988
X285941Y700508
X285941Y704051
X282398Y704051
X282398Y700508
X278854Y700508
X278854Y704051
X278854Y707594
X282398Y707594
X285941Y707594
X285941Y711138
X282398Y711138
X278854Y711138
X278854Y718224
X282398Y718224
X285941Y718224
X285941Y721768
X285941Y725311
X285941Y728854
X282398Y728854
X282398Y725311
X282398Y721768
X278854Y721768
X278854Y725311
X278854Y728854
X360350Y773736
X360350Y777280
X363894Y777280
X363894Y773736
X372161Y791453
X375705Y791453
X379248Y791453
X397457Y759957
X400409Y759957
X404051Y756020
X393421Y756020
X392240Y726492
X392240Y721768
X388697Y718224
X399327Y725311
X411138Y711138
X404051Y705232
X399327Y702870
X394602Y700508
X391059Y700508
X375705Y701689
X381610Y659169
X379248Y656807
X425311Y616650
X428854Y670980
X484071Y692240
X487024Y692240
X503854Y708185
X507398Y711728
X510941Y715272
X514484Y718815
X518618Y722949
X514484Y727083
X510941Y730626
X507398Y734169
X503854Y737713
X522752Y727083
X526492Y730823
X529839Y734169
X533382Y737713
X539878Y750114
X546965Y745390
X535154Y759563
X564681Y779642
X577673Y782004
X575311Y771374
X572949Y763106
X587122Y763106
X602476Y763106
X608382Y760744
X610744Y763106
X606020Y772555
X608382Y748933
X614287Y748933
X624917Y746571
X602476Y748933
X597752Y734760
X581217Y735941
X575311Y737122
X580035Y709957
X580035Y700508
X569406Y708776
X565862Y709957
X556413Y708776
X552870Y709957
X541059Y709957
X533382Y708185
X529839Y711728
X526295Y715272
X522752Y718815
X532791Y696965
X531610Y665075
X494996Y663894
X589484Y648539
X598638Y707594
X601591Y707594
X614287Y711138
X661531Y735941
X673343Y741846
X674524Y752476
X681610Y756020
X685154Y747752
X696965Y733579
X663894Y708776
X654445Y673343
X699327Y672161
X725311Y728854
X728854Y728854
X769012Y702870
X795882Y673343
X798835Y673343
X833972Y674524
X833972Y678067
X833972Y681610
X838697Y675705
X843421Y675705
X848146Y675705
X851689Y680429
X851689Y685154
X850508Y706413
X881217Y715862
X884760Y715862
X888303Y715862
X891846Y715862
X891846Y719406
X891846Y722949
X888303Y722949
X884760Y722949
X881217Y722949
X881217Y719406
X884760Y719406
X888303Y719406
X895390Y719406
X895390Y722949
X895390Y715862
X893815Y740272
X893815Y743815
X893815Y747358
X890272Y747358
X890272Y743815
X890272Y740272
X886728Y740272
X883185Y740272
X883185Y743815
X879642Y743815
X879642Y747358
X883185Y747358
X886728Y747358
X886728Y743815
X879642Y740272
X842240Y754839
X837516Y773736
X835154Y773736
X831610Y773736
X828067Y785547
X823343Y785547
X818618Y785547
X836335Y789091
X818618Y767831
X818618Y764287
X815075Y764287
X796177Y751295
X779642Y767831
X782890Y806807
X785843Y806807
X791453Y805626
X777280Y810350
X807988Y835154
X792634Y871768
X787909Y871768
X783185Y871768
X778461Y871768
X770193Y883579
X766650Y887122
X735941Y898933
X709957Y874130
X695783Y876197
X695783Y879150
X686335Y889484
X678067Y885941
X676886Y882398
X673343Y882398
X668618Y881217
X666256Y889484
X673343Y889484
X640272Y893028
X623736Y883579
X619012Y887122
X606020Y894209
X598933Y884760
X593028Y876492
X596571Y874130
X597752Y869406
X583579Y869406
X571768Y859957
X576492Y849327
X562319Y867043
X561138Y876492
X564681Y877673
X571768Y884760
X585941Y884760
X596571Y904839
X591846Y910744
X587122Y909563
X583972Y908382
X576492Y908382
X562319Y904839
X555232Y904839
X551689Y900114
X548146Y900114
X548146Y903657
X555232Y898933
X541059Y894209
X533972Y896571
X528067Y900114
X524524Y900114
X520980Y898933
X520980Y895390
X517437Y894209
X530429Y904839
X531610Y908382
X546965Y882398
X550508Y880035
X524524Y861138
X502083Y864681
X506807Y878854
X465764Y874130
X462811Y874130
X450409Y874130
X447457Y874130
X437122Y885941
X437122Y891846
X437122Y897752
X439484Y900114
X437122Y903657
X441846Y904839
X447752Y906020
X454839Y891059
X425311Y880035
X415862Y885941
X415862Y891846
X415862Y897752
X411138Y898933
X411138Y903657
X415862Y909563
X409957Y889484
X408776Y877673
X408776Y874130
X408776Y870587
X408776Y867043
X405232Y867043
X401689Y867043
X401689Y870587
X401689Y874130
X401689Y877673
X405232Y877673
X405232Y874130
X405232Y870587
X382791Y870587
X382791Y874130
X379248Y874130
X375705Y874130
X375705Y870587
X379248Y870587
X379248Y867043
X375705Y867043
X375705Y863500
X382791Y867043
X382791Y877673
X400508Y822161
X366256Y820980
X361531Y820980
X356807Y820980
X435941Y823343
X444209Y839878
X476098Y819799
X520980Y800902
X528067Y811531
X526886Y813894
X530429Y813894
X539878Y813894
X543421Y813894
X546965Y813894
X543421Y819799
X529248Y833972
X545783Y851689
X554051Y843421
X564681Y819799
X577673Y797358
X569406Y793815
X590665Y806807
X620193Y819799
X626098Y824524
X635547Y824524
X623736Y811531
X641453Y797358
X647358Y773736
X650902Y771374
X654445Y760744
X646177Y759563
X669936Y810488
X672024Y812575
X665075Y818618
X666256Y824524
X667437Y828067
X656807Y829248
X656807Y836335
X647358Y842240
X647358Y845783
X647358Y849327
X648539Y857594
X648539Y861138
X648539Y864681
X667437Y859957
X722949Y818618
X794996Y877673
X849327Y640272
X837516Y639091
X854051Y610744
X854051Y606020
X854051Y601295
X866256Y598933
X869799Y598933
X869799Y595390
X866256Y595390
X872949Y613106
X872949Y616650
X880035Y616650
X880035Y613106
X872949Y574130
X861138Y577673
X828067Y544602
X798539Y538697
X796177Y541059
X796177Y536335
X794996Y558776
X794996Y562319
X803264Y577673
X803264Y581217
X768875Y604701
X766787Y602614
X751295Y549327
X751295Y544602
X751295Y539878
X772555Y531610
X772555Y528067
X754839Y513894
X777280Y479642
X782890Y474917
X785843Y474917
X789091Y478461
X790272Y452476
X794996Y452476
X794602Y445783
X794602Y442240
X787909Y437122
X784366Y437122
X785547Y452476
X760744Y461925
X747752Y419406
X747752Y415862
X778461Y373343
X782004Y373343
X785547Y373343
X785547Y369799
X782004Y369799
X782004Y366256
X785547Y366256
X785547Y362713
X782004Y362713
X778461Y362713
X778461Y366256
X778461Y369799
X778461Y359169
X782004Y359169
X785547Y359169
X796177Y359169
X799720Y359169
X799720Y362713
X796177Y362713
X796177Y366256
X796177Y369799
X799720Y369799
X799720Y366256
X803264Y366256
X803264Y369799
X803264Y373343
X799720Y373343
X796177Y373343
X803264Y362713
X803264Y359169
X844602Y402870
X841059Y446571
X841059Y450114
X837516Y450114
X837516Y446571
X813894Y469012
X900114Y528067
X900114Y531610
X903657Y531610
X903657Y528067
X907201Y528067
X910744Y528067
X910744Y531610
X907201Y531610
X907201Y535154
X910744Y535154
X914287Y535154
X914287Y531610
X914287Y528067
X903657Y535154
X900114Y535154
X903264Y548933
X906807Y548933
X906807Y552476
X903264Y552476
X903264Y556020
X906807Y556020
X910350Y556020
X910350Y552476
X910350Y548933
X913894Y548933
X917437Y548933
X917437Y552476
X913894Y552476
X913894Y556020
X917437Y556020
X656807Y415862
X656807Y412319
X656807Y408776
X656807Y405232
X656807Y401689
X652083Y401689
X652083Y405232
X652083Y408776
X652083Y412319
X652083Y415862
X647358Y415862
X647358Y412319
X647358Y408776
X647358Y405232
X647358Y401689
X616650Y392240
X596571Y392240
X589484Y396177
X585941Y412319
X578854Y413500
X570587Y435941
X572949Y438303
X570587Y440665
X572949Y443028
X570587Y445390
X572949Y447752
X570587Y450114
X588303Y471374
X586985Y478598
X584897Y480686
X576492Y473736
X568224Y485547
X563500Y485547
X542240Y490272
X538697Y490272
X535154Y490272
X513106Y477673
X505232Y517043
X511531Y519799
X492634Y519799
X533972Y519799
X533972Y523343
X537516Y523343
X537516Y519799
X532791Y533972
X532791Y537516
X536335Y537516
X593028Y575311
X621374Y565862
X630823Y567043
X619012Y543421
X619012Y541059
X608382Y526886
X515075Y408776
X515075Y405232
X515075Y401689
X515075Y398146
X515075Y394602
X510350Y394602
X510350Y398146
X510350Y401689
X510350Y405232
X510350Y408776
X505626Y408776
X505626Y405232
X505626Y401689
X505626Y398146
X505626Y394602
X532791Y383185
X585941Y341453
X592240Y341846
X602476Y341453
X614287Y344996
X614287Y365075
X439484Y400508
X437122Y402870
X434760Y400508
X432398Y402870
X439484Y419406
X441846Y421768
X444209Y424130
X431610Y383185
X439484Y494996
X439484Y498539
X417043Y535154
X292634Y532791
X292634Y529248
X292634Y525705
X289091Y525705
X289091Y529248
X289091Y532791
X285547Y532791
X285547Y529248
X285547Y525705
X285547Y522161
X289091Y522161
X292634Y522161
X293028Y512713
X293028Y509169
X293028Y505626
X293028Y502083
X289484Y502083
X289484Y505626
X285941Y505626
X285941Y509169
X289484Y509169
X289484Y512713
X285941Y512713
X285941Y502083
X463106Y760744
X466650Y760744
X476098Y763106
X535154Y794996
T02
X431413Y869799
X428854Y873736
X426295Y869799
X423736Y873736
X433972Y873736
T03
X623185Y902339
X623185Y907339
X628185Y907339
X633185Y907339
X638185Y907339
X643185Y907339
X643185Y902339
X638185Y902339
X633185Y902339
X628185Y902339
X491059Y515075
X486335Y515075
X486335Y510350
X486335Y505626
X491059Y505626
X491059Y510350
X481610Y510350
X481610Y505626
X481610Y515075
X492634Y493815
X492634Y489091
X554051Y420587
X554051Y415862
X554051Y411138
X559957Y411138
X559957Y415862
X559957Y420587
X552794Y352366
X556135Y349025
X559476Y345685
X635547Y361531
X640272Y361531
X673343Y361531
X692240Y361531
X696965Y361531
X701689Y361531
X691059Y320193
X686335Y316650
X691059Y313106
X686335Y309563
X691059Y306020
X695783Y309563
X695783Y316650
X695783Y302476
X691059Y298933
X686335Y302476
X681610Y298933
X681610Y306020
X681610Y313106
X681610Y320193
X726492Y317831
X726492Y311925
X704051Y419406
X704051Y424130
X699327Y424130
X699327Y428854
X704051Y428854
X699327Y419406
X718224Y460744
X724130Y461925
X730035Y460744
X649720Y485547
X644996Y485547
X640272Y485547
X640272Y490272
X644996Y490272
X644996Y494996
X649720Y494996
X649720Y490272
X649720Y499720
T04
X746295Y900114
X756295Y900114
T05
X578854Y331807
X578854Y318028
T06
X367634Y391138
X414484Y406728
X407004Y509248
X453854Y524839
X355429Y568146
X308579Y552555
X347949Y670665
X367634Y713972
X394799Y686256
X414484Y729563
X501217Y762909
X453854Y847673
X485626Y869602
X407004Y832083
X538500Y670665
X636138Y568933
X589287Y553343
X596768Y450823
X549917Y435232
X729839Y391138
X776689Y406728
X769209Y509248
X788894Y552555
X816059Y524839
X835744Y568146
X828264Y670665
X875114Y686256
X776689Y729563
X729839Y713972
X698067Y762909
X769209Y832083
X816059Y847673
X682476Y869602
X645193Y686256
T07
X646177Y678461
X728854Y721768
X777673Y721768
X827280Y678461
X876098Y678461
X836728Y560350
X817043Y517043
X787909Y560350
X768224Y517043
X777673Y398933
X728854Y398933
X597752Y443028
X548933Y443028
X454839Y517043
X406020Y517043
X356413Y560350
X307594Y560350
X346965Y678461
X366650Y721768
X395783Y678461
X415469Y721768
X493421Y761925
X454839Y839878
X493421Y870587
X406020Y839878
X537516Y678461
X588303Y561138
X637122Y561138
X690272Y761925
X768224Y839878
X817043Y839878
X690272Y870587
X415469Y398933
X366650Y398933
T08
X461925Y387122
X402870Y548539
X461925Y709957
X721768Y851689
X780823Y690272
X721768Y528854
T09
X547713Y324917
T10
X508185Y559957
X675508Y559957
X591846Y855626
T11
X463894Y599327
X719799Y599327
M30
